<svg width="71" height="70" viewBox="0 0 71 70" fill="none" xmlns="http://www.w3.org/2000/svg">
<g clip-path="url(#clip0)">
<path d="M35.8938 0L0.922241 34.9958L35.8938 69.9917L70.8653 34.9958L35.8938 0ZM8.05794 34.9958L35.8938 7.14065L63.7297 34.9958L35.8938 62.851L8.05794 34.9958Z" fill="white"/>
<path d="M35.8938 13.9233C27.7601 13.9233 20.3583 23.9685 20.3583 34.9957C20.3583 46.023 27.7601 56.0682 35.8938 56.0682C44.0275 56.0682 51.4293 46.023 51.4293 34.9957C51.4293 23.9685 44.0275 13.9233 35.8938 13.9233ZM25.4148 34.9957C25.4148 30.1521 27.2861 25.3667 29.9224 22.304C29.6729 23.4109 29.5399 24.5511 29.5399 25.7162C29.5399 29.8941 31.1699 33.8223 34.114 36.7767C37.973 40.6384 38.2225 46.7553 34.8708 50.9082C29.9474 49.9845 25.4148 42.5608 25.4148 34.9957ZM41.8568 47.7041C42.9879 42.6441 41.6073 37.1346 37.6819 33.2064C33.8229 29.3448 33.5734 23.2278 36.9251 19.0749C41.8402 20.007 46.3811 27.4307 46.3811 34.9957C46.3811 39.856 44.5015 44.6498 41.8568 47.7041Z" fill="white"/>
</g>
<defs>
<clipPath id="clip0">
<rect width="69.9514" height="70" fill="white" transform="translate(0.922241)"/>
</clipPath>
</defs>
</svg>
